<?xml version="1.0" encoding="UTF-8" standalone="no"?>
<!-- Created with Inkscape (http://www.inkscape.org/) -->

<svg
   xmlns:dc="http://purl.org/dc/elements/1.1/"
   xmlns:cc="http://creativecommons.org/ns#"
   xmlns:rdf="http://www.w3.org/1999/02/22-rdf-syntax-ns#"
   xmlns:svg="http://www.w3.org/2000/svg"
   xmlns="http://www.w3.org/2000/svg"
   xmlns:xlink="http://www.w3.org/1999/xlink"
   xmlns:sodipodi="http://sodipodi.sourceforge.net/DTD/sodipodi-0.dtd"
   xmlns:inkscape="http://www.inkscape.org/namespaces/inkscape"
   width="236.72841mm"
   height="151.17215mm"
   viewBox="0 0 236.72841 151.17215"
   version="1.1"
   id="svg8"
   inkscape:version="0.92.3 (2405546, 2018-03-11)"
   sodipodi:docname="Samples.svg">
  <sodipodi:namedview
     id="base"
     pagecolor="#ffffff"
     bordercolor="#666666"
     borderopacity="1.0"
     inkscape:pageopacity="0.0"
     inkscape:pageshadow="2"
     inkscape:zoom="0.35"
     inkscape:cx="-3.825856"
     inkscape:cy="-10.745859"
     inkscape:document-units="mm"
     inkscape:current-layer="layer1"
     showgrid="false"
     inkscape:window-width="1853"
     inkscape:window-height="1025"
     inkscape:window-x="67"
     inkscape:window-y="27"
     inkscape:window-maximized="1"
     fit-margin-top="0"
     fit-margin-left="0"
     fit-margin-right="0"
     fit-margin-bottom="0" />
  <defs
     id="defs2" />
  <metadata
     id="metadata5">
    <rdf:RDF>
      <cc:Work
         rdf:about="">
        <dc:format>image/svg+xml</dc:format>
        <dc:type
           rdf:resource="http://purl.org/dc/dcmitype/StillImage" />
        <dc:title></dc:title>
      </cc:Work>
    </rdf:RDF>
  </metadata>
  <g
     id="layer1"
     inkscape:groupmode="layer"
     inkscape:label="Layer 1"
     transform="translate(330.96216,90.325813)">
    <rect
       inkscape:export-ydpi="400"
       inkscape:export-xdpi="400"
       ry="0.0013375996"
       y="-103.47343"
       x="-330.96216"
       height="164.31978"
       width="236.72841"
       id="rect842"
       style="opacity:0.89800002;fill:#fffffa;fill-opacity:1;stroke:none;stroke-width:0.25794289;stroke-miterlimit:4;stroke-dasharray:0.51588572, 0.25794285;stroke-dashoffset:0;stroke-opacity:1;paint-order:fill markers stroke" />
    <image
       sodipodi:absref="/home/arenaud/LOCALWORK/CellFlowMaxeyRiley/python/Plot/Ensemble_0.100.png"
       xlink:href="Ensemble_0.100.png"
       inkscape:export-ydpi="400"
       inkscape:export-xdpi="400"
       y="-9.2575932"
       x="-330.96216"
       id="image1191"
       style="opacity:0.89800002;image-rendering:optimizeQuality"
       preserveAspectRatio="none"
       height="70.103996"
       width="236.728" />
    <image
       sodipodi:absref="/home/arenaud/LOCALWORK/CellFlowMaxeyRiley/python/Plot/Traj_0.100.png"
       xlink:href="Traj_0.100.png"
       inkscape:export-ydpi="400"
       inkscape:export-xdpi="400"
       y="-90.325813"
       x="-330.96216"
       id="image1202"
       style="opacity:0.89800002;image-rendering:optimizeQuality"
       preserveAspectRatio="none"
       height="70.103996"
       width="236.728" />
    <g
       inkscape:export-ydpi="400"
       inkscape:export-xdpi="400"
       style="opacity:0.89800002"
       id="g1219"
       transform="matrix(0.58128405,0,0,0.58128403,-485.42238,-165.50321)">
      <g
         word-spacing="normal"
         letter-spacing="normal"
         font-size-adjust="none"
         font-stretch="normal"
         font-weight="normal"
         font-variant="normal"
         font-style="normal"
         stroke-miterlimit="10.433"
         xml:space="preserve"
         transform="matrix(0.3,0,0,-0.3,-52.5,222.75)"
         id="content"
         style="font-style:normal;font-variant:normal;font-weight:normal;font-stretch:normal;letter-spacing:normal;word-spacing:normal;text-anchor:start;fill:none;fill-opacity:1;fill-rule:evenodd;stroke:#000000;stroke-linecap:butt;stroke-linejoin:miter;stroke-miterlimit:10.43299961;stroke-dasharray:none;stroke-dashoffset:0;stroke-opacity:1"><path
           id="path1210"
           d="m 1207.6,374.79 v 0.34 0.35 0.34 l -0.1,0.33 -0.1,0.33 v 0.32 l -0.1,0.32 -0.1,0.31 -0.2,0.3 -0.1,0.29 -0.2,0.29 -0.1,0.28 -0.2,0.26 -0.2,0.26 -0.2,0.25 -0.2,0.24 -0.3,0.23 -0.2,0.21 -0.2,0.21 -0.3,0.19 -0.3,0.18 -0.3,0.16 -0.3,0.15 -0.3,0.14 -0.3,0.12 -0.3,0.11 -0.3,0.1 -0.4,0.07 -0.3,0.06 -0.4,0.05 -0.3,0.02 -0.4,0.01 c -2.9,0 -4.3,-0.79 -6.1,-2.09 -2.7,-1.98 -5.4,-6.83 -6.4,-10.61 l -7.9,-31.64 c -0.1,-0.19 0.2,-0.5 0.6,-0.5 0.4,0 0.5,0.11 0.6,0.25 l 3.5,13.75 c 0.9,-2.98 3.1,-4.83 6.7,-4.83 l -0.1,1.1 c -3.8,0 -5.7,2.89 -5.7,6.43 0,0.49 0,1.24 0.3,2.19 l 3.2,12.61 c 1.1,4.28 4.6,12.2 10.6,12.2 2.9,0 4.7,-1.54 4.7,-4.53 v 0 c 0,-3.5 -1.9,-7.08 -4.5,-8.62 -1.4,0.5 -2.4,0.59 -3.9,0.59 -1,0 -3.8,0.05 -3.8,-1.59 0,-1.39 2.5,-1.24 3.4,-1.24 l 0.2,1.1 c -0.7,0 -1.7,-0.07 -2.2,0.18 0.1,0.5 1.9,0.41 2.4,0.41 1.1,0 1.5,0 2.2,-0.25 v 0 c -0.7,-0.25 -1.2,-0.34 -2.4,-0.34 l -0.2,-1.1 c 1.9,0 2.6,0.05 4.1,0.64 1.9,-1.79 2.2,-3.34 2.2,-5.62 0.1,-2.89 -1.1,-6.63 -2.5,-8.58 -1.9,-2.69 -5.3,-4.48 -8.1,-4.48 l 0.1,-1.1 c 3.7,0 7.4,1.75 9.7,3.94 2.3,2.3 4,5.48 4,9.17 0,3.58 -1.9,6.17 -3.7,7.42 2.9,1.64 5.7,4.74 5.7,8.32 z"
           inkscape:connector-curvature="0"
           style="fill:#000000;stroke-width:0" /><path
           id="path1212"
           d="m 1257.9,362.74 h 0.1 0.2 0.1 l 0.1,0.01 h 0.1 v 0.01 l 0.1,0.01 0.1,0.01 v 0.01 l 0.1,0.01 0.1,0.02 v 0.02 l 0.1,0.02 0.1,0.03 v 0.02 l 0.1,0.03 v 0.04 l 0.1,0.04 v 0.04 l 0.1,0.04 v 0.05 0.03 0.03 l 0.1,0.03 v 0.03 0.03 0.03 0.03 0.04 0.03 0.04 0.04 0.04 l 0.1,0.04 v 0.04 0.05 0.04 c 0,1 -1,1 -1.7,1 h -29.8 c -0.7,0 -1.7,0 -1.7,-1 0,-0.98 1,-0.98 1.7,-0.98 z"
           inkscape:connector-curvature="0"
           style="fill:#000000;stroke-width:0" /><path
           id="path1214"
           d="m 1257.9,353.07 h 0.1 0.1 0.1 0.1 l 0.1,0.01 h 0.1 v 0.01 l 0.1,0.01 0.1,0.01 v 0.01 l 0.1,0.01 0.1,0.02 v 0.02 l 0.1,0.02 0.1,0.03 v 0.02 l 0.1,0.04 v 0.03 l 0.1,0.04 v 0.04 l 0.1,0.05 v 0.02 0.03 0.02 0.03 l 0.1,0.03 v 0.03 0.03 0.04 0.03 0.04 0.03 0.04 0.04 0.04 l 0.1,0.04 v 0.05 0.04 0.05 c 0,1 -1,1 -1.7,1 h -29.8 c -0.7,0 -1.7,0 -1.7,-1 0,-1 1,-1 1.7,-1 z"
           inkscape:connector-curvature="0"
           style="fill:#000000;stroke-width:0" /><path
           id="path1216"
           d="m 1282.6,350.29 5.3,5.12 c 7.8,6.88 10.8,9.56 10.8,14.55 0,5.68 -4.5,9.67 -10.6,9.67 -5.6,0 -9.3,-4.59 -9.3,-9.03 0,-2.78 2.5,-2.78 2.6,-2.78 0.9,0 2.6,0.59 2.6,2.64 0,1.29 -0.9,2.59 -2.6,2.59 -0.4,0 -0.5,0 -0.6,-0.05 1.1,3.24 3.8,5.08 6.7,5.08 4.5,0 6.7,-4.04 6.7,-8.12 0,-3.99 -2.5,-7.92 -5.3,-11.02 l -9.5,-10.65 c -0.6,-0.55 -0.6,-0.65 -0.6,-1.85 h 18.5 l 1.4,8.67 h -1.3 c -0.2,-1.5 -0.6,-3.68 -1.1,-4.43 -0.3,-0.39 -3.6,-0.39 -4.7,-0.39 z"
           inkscape:connector-curvature="0"
           style="fill:#000000;stroke-width:0" /></g>    </g>
    <g
       inkscape:export-ydpi="400"
       inkscape:export-xdpi="400"
       style="opacity:0.89800002"
       transform="matrix(0.58128403,0,0,0.58128403,-315.43138,-165.50321)"
       id="g1255">
      <g
         style="font-style:normal;font-variant:normal;font-weight:normal;font-stretch:normal;letter-spacing:normal;word-spacing:normal;text-anchor:start;fill:none;fill-opacity:1;fill-rule:evenodd;stroke:#000000;stroke-linecap:butt;stroke-linejoin:miter;stroke-miterlimit:10.43299961;stroke-dasharray:none;stroke-dashoffset:0;stroke-opacity:1"
         id="g1253"
         transform="matrix(0.3,0,0,-0.3,-52.5,222.75)"
         xml:space="preserve"
         stroke-miterlimit="10.433"
         font-style="normal"
         font-variant="normal"
         font-weight="normal"
         font-stretch="normal"
         font-size-adjust="none"
         letter-spacing="normal"
         word-spacing="normal"><path
           style="fill:#000000;stroke-width:0"
           inkscape:connector-curvature="0"
           d="m 1207.6,374.79 v 0.34 0.35 0.34 l -0.1,0.33 -0.1,0.33 v 0.32 l -0.1,0.32 -0.1,0.31 -0.2,0.3 -0.1,0.29 -0.2,0.29 -0.1,0.28 -0.2,0.26 -0.2,0.26 -0.2,0.25 -0.2,0.24 -0.3,0.23 -0.2,0.21 -0.2,0.21 -0.3,0.19 -0.3,0.18 -0.3,0.16 -0.3,0.15 -0.3,0.14 -0.3,0.12 -0.3,0.11 -0.3,0.1 -0.4,0.07 -0.3,0.06 -0.4,0.05 -0.3,0.02 -0.4,0.01 c -2.9,0 -4.3,-0.79 -6.1,-2.09 -2.7,-1.98 -5.4,-6.83 -6.4,-10.61 l -7.9,-31.64 c -0.1,-0.19 0.2,-0.5 0.6,-0.5 0.4,0 0.5,0.11 0.6,0.25 l 3.5,13.75 c 0.9,-2.98 3.1,-4.83 6.7,-4.83 l -0.1,1.1 c -3.8,0 -5.7,2.89 -5.7,6.43 0,0.49 0,1.24 0.3,2.19 l 3.2,12.61 c 1.1,4.28 4.6,12.2 10.6,12.2 2.9,0 4.7,-1.54 4.7,-4.53 v 0 c 0,-3.5 -1.9,-7.08 -4.5,-8.62 -1.4,0.5 -2.4,0.59 -3.9,0.59 -1,0 -3.8,0.05 -3.8,-1.59 0,-1.39 2.5,-1.24 3.4,-1.24 l 0.2,1.1 c -0.7,0 -1.7,-0.07 -2.2,0.18 0.1,0.5 1.9,0.41 2.4,0.41 1.1,0 1.5,0 2.2,-0.25 v 0 c -0.7,-0.25 -1.2,-0.34 -2.4,-0.34 l -0.2,-1.1 c 1.9,0 2.6,0.05 4.1,0.64 1.9,-1.79 2.2,-3.34 2.2,-5.62 0.1,-2.89 -1.1,-6.63 -2.5,-8.58 -1.9,-2.69 -5.3,-4.48 -8.1,-4.48 l 0.1,-1.1 c 3.7,0 7.4,1.75 9.7,3.94 2.3,2.3 4,5.48 4,9.17 0,3.58 -1.9,6.17 -3.7,7.42 2.9,1.64 5.7,4.74 5.7,8.32 z"
           id="path1245" /><path
           style="fill:#000000;stroke-width:0"
           inkscape:connector-curvature="0"
           d="m 1257.9,362.74 h 0.1 0.2 0.1 l 0.1,0.01 h 0.1 v 0.01 l 0.1,0.01 0.1,0.01 v 0.01 l 0.1,0.01 0.1,0.02 v 0.02 l 0.1,0.02 0.1,0.03 v 0.02 l 0.1,0.03 v 0.04 l 0.1,0.04 v 0.04 l 0.1,0.04 v 0.05 0.03 0.03 l 0.1,0.03 v 0.03 0.03 0.03 0.03 0.04 0.03 0.04 0.04 0.04 l 0.1,0.04 v 0.04 0.05 0.04 c 0,1 -1,1 -1.7,1 h -29.8 c -0.7,0 -1.7,0 -1.7,-1 0,-0.98 1,-0.98 1.7,-0.98 z"
           id="path1247" /><path
           style="fill:#000000;stroke-width:0"
           inkscape:connector-curvature="0"
           d="m 1257.9,353.07 h 0.1 0.1 0.1 0.1 l 0.1,0.01 h 0.1 v 0.01 l 0.1,0.01 0.1,0.01 v 0.01 l 0.1,0.01 0.1,0.02 v 0.02 l 0.1,0.02 0.1,0.03 v 0.02 l 0.1,0.04 v 0.03 l 0.1,0.04 v 0.04 l 0.1,0.05 v 0.02 0.03 0.02 0.03 l 0.1,0.03 v 0.03 0.03 0.04 0.03 0.04 0.03 0.04 0.04 0.04 l 0.1,0.04 v 0.05 0.04 0.05 c 0,1 -1,1 -1.7,1 h -29.8 c -0.7,0 -1.7,0 -1.7,-1 0,-1 1,-1 1.7,-1 z"
           id="path1249" /><path
           style="fill:#000000;stroke-width:0"
           inkscape:connector-curvature="0"
           d="m 1299.2,362.38 v 0.75 0.74 0.75 0.74 l -0.1,0.75 v 0.74 l -0.1,0.74 -0.1,0.73 -0.1,0.74 -0.2,0.72 -0.1,0.73 -0.2,0.71 -0.2,0.72 -0.3,0.7 -0.2,0.7 -0.2,0.35 -0.2,0.35 c -2.2,4.79 -6.3,5.59 -8.4,5.59 -3,0 -6.7,-1.3 -8.7,-5.94 -1.6,-3.44 -1.9,-7.33 -1.9,-11.31 0,-3.74 0.3,-8.22 2.3,-12 2.1,-4.03 5.8,-5.03 8.2,-5.03 v 1.09 c -1.9,0 -4.9,1.25 -5.8,6.03 -0.5,2.99 -0.5,7.57 -0.5,10.52 0,3.19 0,6.47 0.4,9.15 0.9,5.94 4.7,6.38 5.9,6.38 1.7,0 5,-0.89 5.9,-5.83 0.5,-2.78 0.5,-6.58 0.5,-9.7 0,-3.75 0,-7.13 -0.5,-10.31 -0.8,-4.74 -3.6,-6.24 -5.9,-6.24 v 0 -1.09 c 2.7,0 6.5,1.04 8.7,5.78 1.6,3.44 1.8,7.31 1.8,11.25 z"
           id="path1251" /></g>    </g>
    <g
       id="g907"
       transform="matrix(0.487675,0,0,0.487675,-273.43528,-144.91147)"
       inkscape:export-xdpi="400"
       inkscape:export-ydpi="400">
      <g
         word-spacing="normal"
         letter-spacing="normal"
         font-size-adjust="none"
         font-stretch="normal"
         font-weight="normal"
         font-variant="normal"
         font-style="normal"
         stroke-miterlimit="10.433"
         xml:space="preserve"
         transform="matrix(0.3,0,0,-0.3,-52.5,222.75)"
         id="g905"
         style="font-style:normal;font-variant:normal;font-weight:normal;font-stretch:normal;letter-spacing:normal;word-spacing:normal;text-anchor:start;fill:none;fill-opacity:1;fill-rule:evenodd;stroke:#000000;stroke-linecap:butt;stroke-linejoin:miter;stroke-miterlimit:10.43299961;stroke-dasharray:none;stroke-dashoffset:0;stroke-opacity:1"><path
           id="path877"
           d="m 467.08,439.57 -0.04,0.06 -0.04,0.05 -0.04,0.05 -0.03,0.05 -0.04,0.04 -0.03,0.04 -0.03,0.04 -0.03,0.03 -0.03,0.04 -0.03,0.03 -0.03,0.02 -0.04,0.03 -0.03,0.02 -0.03,0.02 -0.03,0.02 -0.04,0.02 -0.03,0.02 -0.04,0.01 -0.04,0.01 -0.04,0.01 -0.05,0.01 -0.04,0.01 -0.05,0.01 h -0.06 l -0.05,0.01 h -0.06 -0.07 l -0.06,0.01 h -0.08 -0.03 -0.04 -0.04 -0.04 -0.05 -0.04 -8.47 v -1.55 h 1.45 c 0.75,0 1.74,-0.04 2.49,-0.09 1.14,-0.16 1.2,-0.2 1.2,-1.16 v -26 c 0,-1.34 0,-3.68 -5.14,-3.68 v -1.55 c 1.75,0.05 4.19,0.16 5.83,0.16 1.65,0 4.09,-0.11 5.83,-0.16 v 1.55 c -5.13,0 -5.13,2.34 -5.13,3.68 v 25.91 c 0.25,-0.25 0.3,-0.3 0.5,-0.59 l 20.33,-29.91 c 0.44,-0.59 0.5,-0.64 0.84,-0.64 0.71,0 0.71,0.34 0.71,1.3 V 435 c 0,1.34 0,3.68 5.12,3.68 v 1.55 c -1.75,-0.05 -4.19,-0.16 -5.83,-0.16 -1.64,0 -4.09,0.11 -5.82,0.16 v -1.55 c 5.12,0 5.12,-2.34 5.12,-3.68 v -21.29 z"
           inkscape:connector-curvature="0"
           style="fill:#000000;stroke-width:0" /><path
           id="path879"
           d="m 516.3,416.86 -0.01,0.59 -0.04,0.59 -0.07,0.58 -0.1,0.57 -0.13,0.56 -0.14,0.55 -0.18,0.54 -0.2,0.53 -0.22,0.51 -0.25,0.5 -0.26,0.49 -0.29,0.47 -0.31,0.46 -0.33,0.44 -0.35,0.43 -0.36,0.4 -0.39,0.39 -0.4,0.37 -0.41,0.35 -0.44,0.32 -0.44,0.31 -0.46,0.28 -0.48,0.26 -0.49,0.24 -0.49,0.21 -0.51,0.18 -0.53,0.16 -0.53,0.13 -0.54,0.11 -0.54,0.07 -0.56,0.05 -0.56,0.01 -0.05,-1.09 c 2.19,0 4.33,-1.1 5.63,-3.24 1.29,-2.14 1.29,-5.03 1.29,-6.92 0,-1.8 0,-4.48 -1.09,-6.67 -1.09,-2.25 -3.28,-3.69 -5.78,-3.69 v 0 c -2.14,0 -4.33,1.05 -5.67,3.33 -1.25,2.2 -1.25,5.23 -1.25,7.03 0,1.94 0,4.63 1.18,6.83 1.36,2.28 3.69,3.33 5.69,3.33 l 0.05,1.09 c -6.22,0 -11.06,-5.42 -11.06,-11.65 0,-6.43 5.18,-11.21 11.01,-11.21 6.03,0 11.06,4.88 11.06,11.21 z"
           inkscape:connector-curvature="0"
           style="fill:#000000;stroke-width:0" /><path
           id="path881"
           d="m 523.28,423.34 v -13.36 c 0,-2.23 -0.55,-2.23 -3.89,-2.23 v -1.55 c 1.75,0.05 4.28,0.16 5.62,0.16 1.3,0 3.89,-0.11 5.58,-0.16 v 1.55 c -3.33,0 -3.87,0 -3.87,2.23 v 9.17 c 0,5.19 3.53,7.97 6.71,7.97 3.14,0 3.69,-2.69 3.69,-5.53 v -11.61 c 0,-2.23 -0.55,-2.23 -3.89,-2.23 v -1.55 c 1.75,0.05 4.3,0.16 5.64,0.16 1.3,0 3.88,-0.11 5.58,-0.16 v 1.55 c -2.6,0 -3.85,0 -3.89,1.5 v 9.51 c 0,4.28 0,5.83 -1.55,7.61 -0.69,0.86 -2.34,1.84 -5.22,1.84 -3.64,0 -5.98,-2.14 -7.37,-5.21 v 5.21 l -7.03,-0.54 v -1.55 c 3.48,0 3.89,-0.34 3.89,-2.78 z"
           inkscape:connector-curvature="0"
           style="fill:#000000;stroke-width:0" /><polygon
           id="polygon883"
           points="546.06,415.51 559.26,415.51 559.26,418.4 546.06,418.4 "
           style="fill:#000000;stroke-width:0" /><path
           id="path885"
           d="m 570.88,428.21 -6.97,-0.54 v -1.55 c 3.24,0 3.69,-0.3 3.69,-2.73 v -13.41 c 0,-2.23 -0.55,-2.23 -3.89,-2.23 v -1.55 c 1.59,0.05 4.28,0.16 5.49,0.16 1.75,0 3.48,-0.11 5.18,-0.16 v 1.55 c -3.29,0 -3.5,0.25 -3.5,2.18 z"
           inkscape:connector-curvature="0"
           style="fill:#000000;stroke-width:0" /><path
           id="path887"
           d="m 571.09,436.89 -0.01,0.14 -0.01,0.15 -0.02,0.14 -0.02,0.14 -0.03,0.13 -0.04,0.13 -0.04,0.13 -0.05,0.12 -0.06,0.12 -0.06,0.12 -0.06,0.11 -0.07,0.1 -0.08,0.1 -0.08,0.1 -0.08,0.1 -0.09,0.08 -0.1,0.09 -0.09,0.08 -0.1,0.07 -0.11,0.07 -0.11,0.07 -0.11,0.06 -0.11,0.05 -0.12,0.05 -0.11,0.04 -0.12,0.04 -0.13,0.03 -0.12,0.03 -0.13,0.02 -0.13,0.01 -0.13,0.01 -0.12,0.01 c -1.55,0 -2.65,-1.35 -2.65,-2.64 0,-1.35 1.1,-2.64 2.65,-2.64 1.39,0 2.64,1.04 2.64,2.64 z"
           inkscape:connector-curvature="0"
           style="fill:#000000;stroke-width:0" /><path
           id="path889"
           d="m 581.35,423.34 v -13.36 c 0,-2.23 -0.55,-2.23 -3.89,-2.23 v -1.55 c 1.75,0.05 4.28,0.16 5.63,0.16 1.29,0 3.89,-0.11 5.57,-0.16 v 1.55 c -3.32,0 -3.87,0 -3.87,2.23 v 9.17 c 0,5.19 3.53,7.97 6.72,7.97 3.14,0 3.69,-2.69 3.69,-5.53 v -11.61 c 0,-2.23 -0.55,-2.23 -3.9,-2.23 v -1.55 c 1.75,0.05 4.3,0.16 5.65,0.16 1.29,0 3.87,-0.11 5.57,-0.16 v 1.55 c -2.59,0 -3.84,0 -3.89,1.5 v 9.51 c 0,4.28 0,5.83 -1.54,7.61 -0.69,0.86 -2.35,1.84 -5.22,1.84 -3.64,0 -5.99,-2.14 -7.38,-5.21 v 5.21 l -7.03,-0.54 v -1.55 c 3.49,0 3.89,-0.34 3.89,-2.78 z"
           inkscape:connector-curvature="0"
           style="fill:#000000;stroke-width:0" /><path
           id="path891"
           d="m 609.12,417.71 0.04,1.05 c 0.3,7.42 4.49,8.66 6.19,8.66 5.13,0 5.63,-6.72 5.63,-8.66 h -11.82 l -0.04,-1.05 h 13.9 c 1.1,0 1.24,0 1.24,1.05 0,4.92 -2.69,9.75 -8.91,9.75 -5.78,0 -10.37,-5.12 -10.37,-11.36 0,-6.67 5.23,-11.5 10.97,-11.5 6.07,0 8.31,5.53 8.31,6.47 0,0.5 -0.39,0.61 -0.64,0.61 -0.46,0 -0.55,-0.3 -0.66,-0.7 -1.73,-5.13 -6.22,-5.13 -6.72,-5.13 -2.5,0 -4.48,1.49 -5.62,3.33 -1.5,2.39 -1.5,5.69 -1.5,7.48 z"
           inkscape:connector-curvature="0"
           style="fill:#000000;stroke-width:0" /><path
           id="path893"
           d="m 633.98,422.75 v 5.46 l -6.93,-0.54 v -1.55 c 3.49,0 3.9,-0.34 3.9,-2.78 v -13.36 c 0,-2.23 -0.55,-2.23 -3.9,-2.23 v -1.55 c 1.96,0.05 4.29,0.16 5.69,0.16 1.99,0 4.33,0 6.33,-0.16 v 1.55 h -1.05 c -3.68,0 -3.79,0.54 -3.79,2.34 v 7.67 c 0,4.92 2.09,9.36 5.89,9.36 0.34,0 0.43,0 0.54,-0.05 -0.15,-0.04 -1.15,-0.64 -1.15,-1.93 0,-1.41 1.04,-2.14 2.15,-2.14 0.89,0 2.14,0.59 2.14,2.18 0,1.6 -1.54,3.03 -3.68,3.03 -3.64,0 -5.44,-3.32 -6.14,-5.46 z"
           inkscape:connector-curvature="0"
           style="fill:#000000;stroke-width:0" /><path
           id="path895"
           d="m 653.85,426.12 h 7.12 v 1.55 h -7.12 v 9.17 h -1.25 c -0.05,-4.08 -1.55,-9.42 -6.42,-9.61 v -1.11 h 4.23 v -13.75 c 0,-6.12 4.62,-6.72 6.42,-6.72 3.53,0 4.94,3.53 4.94,6.72 v 2.84 h -1.25 v -2.73 c 0,-3.69 -1.5,-5.58 -3.34,-5.58 -3.33,0 -3.33,4.53 -3.33,5.38 z"
           inkscape:connector-curvature="0"
           style="fill:#000000;stroke-width:0" /><path
           id="path897"
           d="m 673.35,428.21 -6.97,-0.54 v -1.55 c 3.24,0 3.69,-0.3 3.69,-2.73 v -13.41 c 0,-2.23 -0.55,-2.23 -3.89,-2.23 v -1.55 c 1.59,0.05 4.28,0.16 5.48,0.16 1.75,0 3.49,-0.11 5.19,-0.16 v 1.55 c -3.3,0 -3.5,0.25 -3.5,2.18 z"
           inkscape:connector-curvature="0"
           style="fill:#000000;stroke-width:0" /><path
           id="path899"
           d="m 673.55,436.89 v 0.14 l -0.01,0.15 -0.02,0.14 -0.02,0.14 -0.03,0.13 -0.04,0.13 -0.04,0.13 -0.05,0.12 -0.06,0.12 -0.06,0.12 -0.06,0.11 -0.07,0.1 -0.08,0.1 -0.08,0.1 -0.08,0.1 -0.09,0.08 -0.1,0.09 -0.09,0.08 -0.1,0.07 -0.11,0.07 -0.11,0.07 -0.11,0.06 -0.11,0.05 -0.12,0.05 -0.12,0.04 -0.12,0.04 -0.12,0.03 -0.12,0.03 -0.13,0.02 -0.13,0.01 -0.13,0.01 -0.13,0.01 c -1.54,0 -2.64,-1.35 -2.64,-2.64 0,-1.35 1.1,-2.64 2.64,-2.64 1.39,0 2.64,1.04 2.64,2.64 z"
           inkscape:connector-curvature="0"
           style="fill:#000000;stroke-width:0" /><path
           id="path901"
           d="m 694.93,409.98 0.02,-0.19 0.03,-0.18 0.04,-0.19 0.04,-0.18 0.05,-0.19 0.05,-0.18 0.07,-0.18 0.06,-0.18 0.08,-0.18 0.08,-0.17 0.09,-0.18 0.09,-0.16 0.1,-0.16 0.11,-0.16 0.11,-0.16 0.12,-0.14 0.13,-0.14 0.13,-0.14 0.14,-0.13 0.14,-0.12 0.15,-0.12 0.16,-0.1 0.16,-0.1 0.17,-0.09 0.18,-0.08 0.18,-0.07 0.19,-0.06 0.19,-0.05 0.2,-0.04 0.2,-0.03 0.21,-0.02 0.22,-0.01 c 1.03,0 4.08,0.71 4.08,4.74 v 2.78 h -1.25 v -2.78 c 0,-2.89 -1.24,-3.19 -1.8,-3.19 -1.64,0 -1.84,2.23 -1.84,2.48 v 9.97 c 0,2.1 0,4.03 -1.78,5.88 -1.96,1.93 -4.44,2.73 -6.83,2.73 -4.1,0 -7.53,-2.33 -7.53,-5.62 0,-1.49 1,-2.35 2.29,-2.35 1.39,0 2.3,1 2.3,2.3 0,0.59 -0.25,2.23 -2.55,2.3 1.35,1.73 3.79,2.28 5.38,2.28 2.45,0 5.28,-1.94 5.28,-6.38 v -1.84 -1.05 -4.98 c 0,-4.74 -3.58,-6.42 -5.83,-6.42 -2.44,0 -4.48,1.75 -4.48,4.23 0,2.73 2.09,6.88 10.31,7.17 v 0 1.05 c -2.53,-0.14 -6.02,-0.3 -9.16,-1.8 -3.73,-1.69 -4.98,-4.28 -4.98,-6.47 0,-4.03 4.83,-5.28 7.97,-5.28 3.3,0 5.58,1.99 6.53,4.33 z"
           inkscape:connector-curvature="0"
           style="fill:#000000;stroke-width:0" /><path
           id="path903"
           d="m 712.1,440.78 -7.17,-0.55 v -1.55 c 3.49,0 3.89,-0.34 3.89,-2.79 v -25.91 c 0,-2.23 -0.54,-2.23 -3.89,-2.23 v -1.55 c 1.64,0.05 4.29,0.16 5.54,0.16 1.25,0 3.68,-0.11 5.53,-0.16 v 1.55 c -3.35,0 -3.9,0 -3.9,2.23 z"
           inkscape:connector-curvature="0"
           style="fill:#000000;stroke-width:0" /></g>    </g>
  </g>
</svg>
